<svg fill="none" height="32" viewBox="0 0 28 32" width="28" xmlns="http://www.w3.org/2000/svg"><path d="m13.6243 31.5551c7.5164 0 13.6304-6.1859 13.6304-13.7846 0-6.7141-4.8511-10.78068-13.0111-10.9711.0607-1.26543.3886-4.20173 2.1857-4.42902.3279-.043.5646-.35014.5221-.68799-.0364-.33174-.34-.57128-.6739-.52828-1.1091.13902-1.8377.82166-2.3216 1.68557-2.1986-2.470936-4.17728-2.077897-5.7959-1.74702-1.0625.20887-1.97321.3993-2.90212-.141275-.2368-.135162-.53429-.092157-.72858.104415-.19429.19043-.23072.49757-.09716.73715 1.34787 2.39573 3.01144 3.78399 4.93607 4.12799.3218.06145.64359.086.94719.086 1.125 0 2.1159-.34501 2.8518-.71004-.0928.58444-.1301 1.11677-.144 1.5025-8.16606.18428-13.0232 4.257-13.0232 10.9711 0 7.5987 6.10786 13.7846 13.6243 13.7846zm7.6866-19.1658c.2366-.2274.6374-.2274.8621 0 .115.1166.1761.2765.1761.4361 0 .1659-.0611.3194-.1761.4361-.1097.1107-.2674.1782-.4311.1782-.1583 0-.316-.0675-.431-.1782-.1097-.1167-.1761-.2762-.1761-.4361 0-.1596.0664-.3195.1761-.4361zm0 3.8639c.2306-.2334.6374-.2274.8621 0 .115.1166.1761.2702.1761.4361 0 .1598-.0611.3194-.1761.4361-.1097.1107-.2674.1782-.4311.1782-.1583 0-.316-.0675-.431-.1842-.1097-.1107-.1761-.2703-.1761-.4301 0-.1596.0664-.3195.1761-.4361zm-2.1375-1.0076c.1157.1107.1761.2703.1761.4302 0 .1595-.0604.3194-.1761.4361-.1156.1107-.2674.1781-.431.1781-.1577 0-.3154-.0674-.4251-.1781-.1151-.1167-.1821-.2766-.1821-.4361 0-.1599.067-.3195.1821-.4362.2188-.2213.6314-.2273.8561.006zm-1.6755-3.9559c.2247-.2334.6314-.2334.8561 0 .1151.1107.1761.2702.1761.4301 0 .1659-.061.3254-.1761.4361-.1097.1167-.2674.1782-.4251.1782-.1642 0-.316-.0615-.431-.1782-.1157-.1107-.1761-.2702-.1761-.4361 0-.1599.0604-.3194.1761-.4301zm-2.9385 2.8503c.2247-.2273.6374-.2273.8556 0 .1156.1104.1761.2703.1761.4299 0 .1658-.0605.3257-.1761.4364-.1091.1167-.2669.1778-.4311.1778-.1577 0-.3154-.0611-.4245-.1778-.1156-.1107-.1761-.2706-.1761-.4364 0-.1596.0605-.3195.1761-.4299z" fill="#f8765e"/></svg>